<?xml version="1.0" ?><!DOCTYPE svg  PUBLIC '-//W3C//DTD SVG 1.1//EN'  'http://www.w3.org/Graphics/SVG/1.1/DTD/svg11.dtd'><svg enable-background="new 0 0 44 44" height="44px" id="Layer_1" version="1.1" viewBox="0 0 44 44" width="44px" xml:space="preserve" xmlns="http://www.w3.org/2000/svg" xmlns:xlink="http://www.w3.org/1999/xlink"><path d="M24.396,29.124c3.648-1.715,5.799-3.767,5.799-7.124c0-3.357-2.15-5.409-5.799-7.124c6.051-2.475,5.879-7.775,5.876-7.83  c-0.024-0.497-0.46-0.894-0.944-0.854c-0.496,0.024-0.879,0.447-0.854,0.943c0.002,0.043,0.154,4.353-5.236,6.273  c-0.426,0.151-0.836,0.305-1.237,0.458c-0.401-0.153-0.812-0.307-1.237-0.458c-1.483-0.528-2.536-1.236-3.299-1.983h6.543  c0.752-0.411,1.313-0.878,1.73-1.35h-9.35c-0.432-0.725-0.646-1.408-0.753-1.937H26.82c0.151-0.536,0.155-0.913,0.154-0.957  c-0.007-0.132,0.004-0.263,0.02-0.393h-11.52c-0.119-0.333-0.427-0.579-0.802-0.598c-0.499-0.039-0.919,0.356-0.944,0.854  c-0.003,0.055-0.175,5.355,5.876,7.83c-3.648,1.715-5.799,3.767-5.799,7.124c0,3.357,2.15,5.409,5.799,7.124  c-6.051,2.475-5.879,7.775-5.876,7.83c0.024,0.481,0.422,0.855,0.898,0.855c0.015,0,0.03-0.001,0.045-0.002  c0.375-0.019,0.684-0.265,0.802-0.598h11.523c-0.017-0.134-0.029-0.269-0.022-0.407c0-0.039,0-0.411-0.148-0.942H15.638  c0.109-0.528,0.325-1.212,0.757-1.937h9.352c-0.42-0.472-0.982-0.938-1.738-1.35h-6.537c0.762-0.749,1.813-1.457,3.291-1.983  c0.426-0.151,0.836-0.305,1.237-0.458c0.401,0.153,0.812,0.307,1.237,0.458c5.337,1.901,5.243,6.098,5.236,6.278  c-0.021,0.494,0.359,0.914,0.854,0.938c0.016,0.001,0.031,0.002,0.046,0.002c0.477,0,0.874-0.374,0.898-0.855  C30.274,36.899,30.446,31.599,24.396,29.124z M15.605,22c0-2.606,1.72-4.323,6.395-6.199c1.56,0.626,2.788,1.235,3.735,1.864h-4.303  c-1.063,0.474-1.875,0.918-2.494,1.35h8.373c0.599,0.703,0.927,1.46,1.036,2.311h-11.18c-0.044,0.221-0.063,0.445-0.063,0.675  s0.019,0.454,0.063,0.674h11.18c-0.109,0.851-0.438,1.607-1.036,2.311h-8.373c0.62,0.432,1.431,0.876,2.494,1.35h4.303  c-0.947,0.629-2.176,1.238-3.735,1.864C17.325,26.323,15.605,24.606,15.605,22z"/></svg>